<?xml version="1.0" encoding="utf-8"?>
<!-- Generator: Adobe Illustrator 19.1.0, SVG Export Plug-In . SVG Version: 6.00 Build 0)  -->
<svg version="1.1" id="Layer_1" xmlns="http://www.w3.org/2000/svg" xmlns:xlink="http://www.w3.org/1999/xlink" x="0px" y="0px"
	 viewBox="-244 166 150 150" style="enable-background:new -244 166 150 150;" xml:space="preserve">
<style type="text/css">
	.st0{fill:#FFFFFF;stroke:#FFFFFF;stroke-width:2;}
</style>
<g>
	<path class="st0" d="M-130.9,221.6h-44.3v-11h10.2c1.5,0,2.6-1.2,2.6-2.6c0-1.5-1.2-2.6-2.6-2.6h-15.4v16.3h-27.3
		c-10.9,0-19.7,8.9-19.7,19.7v36.9h116.1l0.2-36.9C-111.1,230.4-120,221.6-130.9,221.6z M-224.6,241.3c0-9.3,7.6-16.8,16.8-16.8h0.7
		c9.3,0,16.8,7.6,16.8,16.8v34h-34.4V241.3z M-114.2,275.3h-73.1v-34c0-7.1-3.8-13.4-9.5-16.8h16.4V237c0,1.5,1.2,2.6,2.6,2.6
		c1.5,0,2.6-1.2,2.6-2.6v-12.5h44.3c9.3,0,16.8,7.6,16.8,16.8L-114.2,275.3z"/>
</g>
</svg>
