<?xml version="1.0" encoding="utf-8"?>
<!-- Generator: Adobe Illustrator 19.1.0, SVG Export Plug-In . SVG Version: 6.00 Build 0)  -->
<svg version="1.1" id="Layer_1" xmlns="http://www.w3.org/2000/svg" xmlns:xlink="http://www.w3.org/1999/xlink" x="0px" y="0px"
	 viewBox="-244 166 150 150" style="enable-background:new -244 166 150 150;" xml:space="preserve">
<style type="text/css">
	.st0{fill:#FFFFFF;stroke:#FFFFFF;stroke-width:0.75;stroke-miterlimit:10;}
</style>
<g>
	<path class="st0" d="M-104.3,214l0-0.2c-0.1-0.3-0.2-0.6-0.3-0.9c0-0.1-0.1-0.3-0.2-0.4l-0.2-0.4c-0.3-0.6-0.7-1.1-1.2-1.4
		c-0.1-0.1-0.1-0.2-0.2-0.3l-0.1-0.1c-0.2-0.3-0.5-0.5-0.8-0.7l-0.7-2.2c-0.2-0.7-0.7-1.3-1.3-1.7l-0.9-0.6
		c-0.4-0.2-0.8-0.4-1.2-0.5l-0.2,0c-0.2,0-0.3,0-0.5,0c-0.1,0-0.2,0-0.3,0l-0.2,0c-0.3,0-0.6,0.1-0.8,0.2c-0.1,0-0.3,0-0.5,0
		c-0.4,0-0.9,0.1-1.3,0.3l-0.4,0.2c-0.9,0.4-1.5,1.1-1.8,2l-0.7,2.5c-0.1,0.2-0.1,0.4-0.1,0.6l0,0.4c0,0.1,0,0.2,0,0.4
		c-0.2,0.5-0.2,1.1-0.1,1.6c-0.1,0.1-0.2,0.1-0.3,0.2c-0.3,0.2-0.6,0.5-0.8,0.8l-1.9,0.5l-2.1,0.5c0,0,0,0,0,0c-0.3,0-0.7,0.1-1,0.2
		l-0.1,0c-0.2,0.1-0.4,0.2-0.6,0.3l-0.2,0.1c-0.2,0.1-0.5,0.3-0.7,0.5l-0.7,0.7c-0.1,0.1-0.2,0.2-0.3,0.4l-0.7,0.9
		c0,0,0,0.1-0.1,0.1l-0.1,0.2c-0.2,0.2-0.3,0.5-0.4,0.7l-0.1,0.1c-0.3,0.3-0.5,0.6-0.6,0.9l-0.1,0.1c-0.2,0.3-0.3,0.7-0.3,1
		l-0.6,0.1c-0.1,0-0.2,0-0.4,0.1l-0.6,0.1c-0.2,0-0.4,0.1-0.5,0.2l-0.6,0.3c-0.2,0.1-0.4,0.2-0.6,0.3l-0.3,0.2
		c-0.5,0.4-1,0.9-1.2,1.5l-0.1,0.4c-0.1,0.4-0.2,0.7-0.2,1.1v0.2c0,0.1,0,0.2,0,0.2c-0.3,0.1-0.6,0.3-0.9,0.6c0-0.2-0.1-0.4-0.2-0.5
		l0-0.3c0-0.2-0.1-0.5-0.2-0.7l-0.6-1.7c-0.3-0.7-0.8-1.3-1.5-1.7l0-0.1c0-0.6-0.1-1.2-0.4-1.8l-0.3-0.5c0-0.1-0.1-0.2-0.2-0.3
		c0-0.2,0-0.4,0-0.6l0-0.2c-0.1-0.7-0.4-1.4-0.9-1.9l-0.1-0.1c-0.4-0.4-1-0.7-1.6-0.9c-0.1-0.1-0.3-0.2-0.4-0.3l-0.3-0.2
		c-0.3-0.2-0.6-0.3-0.9-0.4c-0.6-0.6-1.4-1-2.3-1c-0.2,0-0.5,0-0.7,0.1l-0.2,0.1c-0.3,0.1-0.6,0.2-0.9,0.3l-0.1,0.1l-0.8,0.2
		c-0.1-0.2-0.2-0.5-0.3-0.7l0-0.1c-0.4-0.6-0.9-1-1.5-1.2l-0.1-0.1c-0.4-0.1-0.7-0.2-1.1-0.2c-0.2,0-0.4,0-0.6,0.1l-0.3,0.1
		c-0.6-0.9-1.6-1.4-2.6-1.4c0,0-0.1,0-0.1,0l-0.1,0c-0.1,0-0.3-0.1-0.4-0.1l-0.2,0c-0.2,0-0.4-0.1-0.6-0.1c0,0,0,0-0.1,0l-0.1,0
		c-0.4-0.2-0.9-0.3-1.4-0.3c-0.3,0-0.7,0-1,0.1c-0.1-0.1-0.2-0.1-0.3-0.1l-0.2-0.1c-0.4-0.4-1-0.6-1.5-0.7l-0.2-0.1
		c-0.3-0.1-0.6-0.1-0.9-0.1c-0.1,0-0.1,0-0.2,0l-0.5,0c-0.3-0.8-0.9-1.4-1.8-1.8l-0.4-0.2c-0.4-0.2-0.8-0.2-1.2-0.2h-0.3
		c-1,0-1.8,0.4-2.4,1.1l-1.6,0l-6.5-0.2l-6.7-0.5l-9.3-1l-5.9-1l-5.9-1l-2.1-0.4l-1.5-0.4c-0.2-0.1-0.3-0.1-0.5-0.1l-4.6-1.1
		l-2.9-0.7l-3.1-0.8c-0.3-0.1-0.6-0.1-0.8-0.1c-0.7,0-1.4,0.3-2,0.7c-0.1,0.1-0.3,0.2-0.4,0.4c-0.5-0.4-1.1-0.5-1.8-0.5
		c-0.4,0-0.8,0.1-1.2,0.2c-1,0.4-1.7,1.3-1.9,2.4l0,0.2l0,0.1c-0.1,0.3-0.1,0.6-0.1,0.8l0,0.6c0,0.4,0,0.7,0.1,1.1l0,0.1l0,0.3
		c0,0.2,0,0.3,0,0.5l0,0.2c0,0.2,0,0.3,0,0.5v0.1c0,0.1-0.1,0.3-0.1,0.4c-0.1,0.3-0.2,0.5-0.2,0.8l0,0.1c-0.1,0.4-0.2,0.8-0.1,1.2
		c0,0.1,0,0.1-0.1,0.2l-0.4,1.2l-0.2,0.7l-0.3,0.5c-0.1,0.2-0.2,0.4-0.2,0.6l-0.5,1.4l-0.4,0.7c0,0.1-0.1,0.1-0.1,0.2l-0.1,0.2
		c-0.5,0.4-0.8,0.9-1,1.5c-0.1,0.1-0.1,0.1-0.2,0.2l-0.2,0.2c-0.4,0.6-0.6,1.4-0.5,2.1l0,0.2c0,0.1-0.1,0.3-0.1,0.4
		c-0.2,0.5-0.2,1.1-0.1,1.6c-0.1,0.3-0.1,0.7-0.1,1c-0.1,0.2-0.1,0.3-0.2,0.5l-0.2,0.2c-0.1,0.1-0.2,0.3-0.4,0.5l-0.3,0.5
		c-0.3,0.5-0.5,1-0.5,1.6c0,0.3-0.1,0.5,0,0.8l0,0.4c0,0.3,0.1,0.5,0.2,0.7l0.1,0.3c0.1,0.2,0.1,0.3,0.2,0.5l-0.1,0.5
		c-0.1,0.3-0.1,0.7-0.1,1c-0.1,0.6-0.1,1.2,0.1,1.8l0.3,0.9c0.1,0.1,0.1,0.3,0.2,0.4l0.2,0.3c-0.1,0.5,0,1.1,0.2,1.6
		c0.1,0.3,0.3,0.6,0.5,0.9l0,0.8c0,0.4,0.1,0.8,0.2,1.2l0.1,0.4c0,0.1,0.1,0.2,0.1,0.3c0,0,0,0,0,0l0,0.7c0,0.7,0.2,1.4,0.5,1.9
		l0.2,0.3c0,0,0,0.1,0,0.1c0.1,0.4,0.2,0.8,0.4,1.1l0.4,0.8l0,0.2c0,0.2,0,0.3,0.1,0.5c-0.1,0.2-0.1,0.4-0.1,0.6l0,0.2
		c-0.1,1,0.3,1.9,1,2.6l0.3,0.3c0.1,0.1,0.3,0.2,0.4,0.3l0.4,0.3c0.4,0.3,0.9,0.5,1.4,0.5l0.1,0.1c0.2,0.3,0.4,0.5,0.6,0.7l0.4,0.4
		c0.1,0.1,0.3,0.2,0.5,0.3c0.1,0.2,0.2,0.3,0.4,0.5l0.2,0.2c0.3,0.3,0.7,0.6,1.1,0.8c0,0,0.1,0.1,0.1,0.1l0,0c0,0.4,0,0.7,0.1,1.1
		c0,0.1,0,0.2,0,0.3l0.1,0.3c0.1,0.4,0.2,0.7,0.4,1l0.1,0.1c0.5,0.9,1.4,1.4,2.4,1.5l3.6,0.4c0.2,0.2,0.4,0.3,0.6,0.5l8.6,5
		c0.3,0.2,0.7,0.3,1.1,0.4l5.1,0.8c0.2,0,0.3,0,0.5,0c0.2,0,0.4,0,0.6-0.1l1.9-0.2l2.5-0.2c0.1,0.1,0.3,0.2,0.4,0.3l0.1,0.1l1.1,1.3
		c0.1,0.2,0.3,0.3,0.4,0.4l0.3,0.3c0,0.1,0.1,0.1,0.1,0.2c0,0.3,0,0.6,0.1,0.9l0.1,0.3c0.1,0.3,0.2,0.7,0.4,0.9l0.4,0.7
		c0.2,0.3,0.5,0.6,0.8,0.9l1.7,1.3c0.1,0,0.1,0.1,0.2,0.1l1.2,0.7c0.4,0.2,0.8,0.4,1.2,0.4l0.3,0.1c0.2,0,0.3,0,0.5,0
		c0.5,0,1-0.1,1.4-0.3l0.2-0.1c0.4-0.2,0.8-0.5,1.1-0.9c0.2-0.1,0.3-0.3,0.5-0.5c0,0,0,0,0,0c0.1,0.1,0.2,0.2,0.3,0.4l0.7,1.6
		l0.1,0.3c0.1,0.4,0.3,0.7,0.6,1l0.5,0.6c0.1,0.2,0.3,0.5,0.5,0.7l0.2,0.2c0,0.2,0.1,0.5,0.2,0.7c0.1,0.6,0.3,1.2,0.7,1.6l0.2,0.4
		c0.3,1.2,1.2,2.2,2.4,2.4c0.2,0.1,0.4,0.2,0.6,0.3l0.2,0.1l0.5,0.3c0.4,0.3,0.9,0.5,1.5,0.5l0.5,0c0.1,0.1,0.2,0.1,0.4,0.2l0.3,0.1
		c0.4,0.2,0.9,0.3,1.4,0.3c0.6,0,1.3-0.2,1.8-0.6c0.4-0.2,0.7-0.4,1-0.7l0.1-0.1c0.6-0.6,0.9-1.4,0.9-2.2v-0.2
		c0-0.8-0.3-1.5-0.8-2.1l-0.1-0.3c0-0.2,0.1-0.3,0.1-0.5c0-0.1,0-0.1,0.1-0.2l0.1-0.3c0.2-0.2,0.3-0.4,0.4-0.5c0,0,0.1-0.1,0.1-0.1
		c0.1,0,0.2-0.1,0.2-0.1l0.1,0c0.3-0.2,0.6-0.4,0.8-0.6l0.3-0.1c0.3-0.1,0.6-0.2,0.8-0.4l1.5-1c0.4-0.3,0.8-0.7,1-1.1
		c0.1,0,0.1-0.1,0.2-0.1l0.6-0.3l0.1,0c0.3,0,0.6-0.1,0.9-0.2l0.2,0c0.2,0.1,0.4,0.1,0.6,0.2l1.3,0.2c0.2,0,0.4,0.1,0.6,0.1
		c0.1,0,0.1,0,0.2,0l0.8,0c0.1,0,0.2,0,0.3,0c0.4,0.4,1,0.8,1.6,0.9c0.4,0.2,0.8,0.3,1.3,0.3c0.1,0,0.1,0,0.2,0l0.4,0
		c0.2,0,0.4,0,0.6-0.1l0,0c0.2,0,0.4,0.1,0.6,0.1c0.2,0,0.4,0,0.6-0.1c0.5,0.2,0.9,0.3,1.4,0.3c0.4,0,0.9-0.1,1.3-0.3l0.4-0.2
		c0.9-0.2,1.7-0.9,2.1-1.8l0.1-0.2c0.2-0.5,0.3-1.1,0.3-1.7c0.1,0,0.2,0,0.2,0l0.2,0c0.3,0,0.6-0.1,0.9-0.2c0.1,0,0.1,0,0.2,0
		l0.4-0.1c0.1,0,0.2-0.1,0.4-0.1c0.1,0,0.1,0,0.2-0.1c0.1,0,0.3,0,0.4-0.1c0,0,0,0,0.1,0l0.1,0l0.1,0c0.3,0.7,0.9,1.2,1.6,1.5
		l0.1,0.1c0.4,0.2,0.8,0.3,1.2,0.3c0.3,0,0.6,0,0.9-0.1l0.9-0.3c0.2,0,0.3-0.1,0.5-0.2c0.3-0.1,0.6-0.2,0.8-0.4
		c0.1,0,0.1,0.1,0.2,0.1l0.2,0.1c0.1,0.2,0.3,0.3,0.4,0.4l0.2,0.1l0,0c-0.1,0.2-0.1,0.5-0.1,0.8l0,0.6c0,0.4,0.1,0.8,0.2,1.1
		l0.1,0.2c0.1,0.3,0.3,0.6,0.5,0.8c0.2,0.4,0.4,0.8,0.7,1.2l0,0l0.2,0.4c0.3,0.6,0.7,1,1.2,1.4l0.2,0.2c0.2,0.3,0.4,0.6,0.7,0.8
		l0.1,0.2c0.3,0.7,0.8,1.3,1.4,1.7l0.1,0.1c0.1,0.1,0.3,0.1,0.4,0.2c0.1,0.3,0.3,0.6,0.5,0.9l0.1,0.1c0.5,0.5,1.1,0.9,1.8,1.1
		l0.4,0.1c0.2,0,0.4,0.1,0.7,0.1c0.4,0,0.8-0.1,1.2-0.2c0.1,0,0.3-0.1,0.4-0.1l1-0.4c0.7-0.3,1.3-0.8,1.7-1.5l0.2-0.4
		c0.2-0.3,0.3-0.6,0.3-0.9l0-0.1c0-0.2,0.1-0.3,0.1-0.5c0.3-0.7,0.4-1.4,0.2-2.2l-0.1-0.4c0-0.2,0-0.4,0-0.5l-0.1-0.9
		c0-0.2,0-0.4-0.1-0.6l-0.2-0.8c-0.1-0.2-0.2-0.5-0.3-0.7l-0.1-0.3c-0.1-0.2-0.2-0.3-0.3-0.4l-0.5-0.6l-0.3-0.7
		c-0.1-0.2-0.2-0.4-0.3-0.6c0,0,0,0,0,0v-0.1c0-0.7-0.2-1.3-0.6-1.9l-0.7-1c-0.1-0.2-0.2-0.3-0.4-0.4l-0.4-0.4
		c-0.1-0.1-0.1-0.1-0.2-0.1l-0.2-0.2l-0.3-0.6l-0.1-0.2c0-0.2-0.1-0.3-0.2-0.5l-0.2-0.5c-0.1-0.3-0.2-0.6-0.3-0.9
		c0-0.1-0.1-0.2-0.1-0.3l0,0l0.2-0.5c0-0.1,0.1-0.3,0.1-0.4c0.3-0.3,0.5-0.7,0.7-1.2l0-0.1c0-0.1,0-0.1,0-0.2c0,0,0-0.1,0-0.1
		c0,0,0,0,0,0l0.1-0.1c0,0,0.1-0.1,0.1-0.1l0,0l0.1-0.1c0.1-0.1,0.2-0.1,0.2-0.2l0.2-0.2c0.1-0.1,0.3-0.3,0.4-0.4
		c0.3-0.2,0.6-0.5,0.8-0.8c0.4-0.3,0.7-0.6,0.9-1c0.3-0.4,0.4-0.8,0.5-1.3c0.2,0,0.3-0.1,0.5-0.2l0.2-0.1c0.5-0.2,1-0.6,1.3-1.1
		l0.1-0.2c0.2-0.4,0.4-0.8,0.5-1.2l0,0c0.1,0,0.1-0.1,0.2-0.1c0.1-0.1,0.2-0.2,0.3-0.3c0.6-0.2,1.1-0.5,1.5-1l0.4-0.4
		c0.2-0.2,0.3-0.5,0.5-0.7l0.2-0.4c0.2-0.4,0.3-0.8,0.3-1.2c0.6-0.6,0.9-1.4,0.9-2.2v-0.1c0-0.3,0-0.5-0.1-0.8l0-0.1
		c0-0.4-0.1-0.8-0.3-1.1l-0.1-0.3c0-0.1-0.1-0.1-0.1-0.2c0-0.1-0.1-0.3-0.1-0.4l-0.1-0.3c-0.1-0.2-0.2-0.3-0.2-0.5
		c0-0.1,0-0.2-0.1-0.2l-0.3-0.8c0-0.1,0-0.1-0.1-0.2c0.5-0.5,0.9-1.1,1.1-1.8c0-0.1,0.1-0.2,0.1-0.3l0.2-1c0.1-0.4,0.1-0.8,0-1.2
		l0,0c0.1-0.2,0.2-0.5,0.2-0.7c0-0.1,0.1-0.1,0.1-0.2l0.1-0.1c0.2-0.2,0.3-0.5,0.4-0.8l0.1-0.3l0.1-0.2c0.2-0.5,0.3-1,0.3-1.6l0-0.2
		l0-0.1c0.1-0.1,0.2-0.1,0.2-0.2l0,0l0.8-0.5l0.3-0.2c0.1,0,0.1-0.1,0.2-0.1c0.2-0.1,0.4-0.3,0.6-0.4l0.1,0c0.6-0.3,1-0.9,1.2-1.5
		l0.1-0.3c0,0,0,0,0-0.1c0.1-0.1,0.2-0.2,0.3-0.3c0.4-0.1,0.7-0.3,1-0.5c0.2,0,0.5-0.1,0.7-0.2c1.1-0.5,1.8-1.5,1.9-2.7l0-0.3
		c0-0.5,0-1-0.2-1.5l-0.2-0.5c-0.1-0.2-0.2-0.4-0.3-0.6l-0.4-0.5c-0.3-0.4-0.7-0.7-1.1-1c0,0,0,0,0,0l0,0c0.1-0.1,0.2-0.2,0.3-0.3
		l0.2-0.2c0,0,0,0,0.1-0.1c0.2-0.2,0.4-0.4,0.6-0.6l0.1-0.1c0.2-0.2,0.3-0.4,0.4-0.6c0.7-0.2,1.4-0.7,1.8-1.4c0,0,0,0,0,0l0.4-0.3
		l0.1-0.1c0.5-0.3,0.9-0.8,1.2-1.4l0.1-0.2C-104.3,215.3-104.2,214.6-104.3,214z M-107.5,214.8l-0.2,0.1l-0.1,0l-0.1,0.1l-0.1,0.2
		l-0.4,0.4l-0.3,0.1l-0.3,0.6l-0.2-0.2l-0.3,0l-0.2,0.3l-0.1,0l-0.1,0.3l-0.1,0.2l-0.1,0.1l-0.3-0.1h-0.1v0.2l-0.3,0.3l0,0.3
		l-0.1,0.4l-0.1,0.1l-0.2,0.1l-0.2,0l-0.1,0.1v0.2l-0.2,0.2l-0.4,0.1l0,0.1v0.2l-0.1,0.1l-0.1-0.1l-0.1-0.2l-0.1-0.1l-0.6,0.5
		l0.1,0.3l0.1,0.1l0,0.1l-0.2,0.2l-0.1,0.6l-0.2,0.4l-0.1,0.4l0,0.3l-0.1,0.1l0,0.1l0,0.2l0,0.2l0.1,0.4l0.3,0.2l0.1,0.1l0,0.1
		l-0.1,0.1l-0.1,0.3l-0.1,0.3l0,0.2h0.3l0.3,0.1l0.5,0.5l0.1,0.3l0.2,0.3l0.5,0l0.3-0.2l0.2-0.4l-0.1-0.1l-0.2-0.2l-0.3-0.1l0-0.1
		l0.2,0h0.1l0.4,0.5l0.2,0.5l0,0.3l-0.2-0.2l-0.2,0.2l-0.4,0.2l-0.4,0.3h-0.1l-0.1-0.1v-0.1l-0.1-0.3h-0.1l-0.2,0.4l-0.3,0.3
		l-0.1,0.1l0,0l-0.2,0l-0.1,0.2h-0.1v0.2l-0.1,0l-0.1-0.1v-0.4v-0.2l-0.1-0.1l-0.2,0.2v0.3l0.1,0.1v0.2l-0.3,0.2l-0.4,0.3l-0.1,0
		l-0.3,0l-0.7,0.3l-0.2,0l-0.1,0.1l0,0.1l-0.1,0l-0.4,0.1l-0.6,0.3l-0.1-0.1l-0.3,0.4l-0.8,0.6l-0.3,0.2l-0.2,0.1l-0.1,0.3l0,0.2
		l0.1,0.1l0.2-0.3l0.2-0.1l0.6-0.3l0.8-0.4l0.6-0.3l0.2-0.2l0.1-0.2l0.2-0.2l0.1,0.1l-0.2,0.4l-0.2,0.2l-0.1,0.2l0.1,0.1l0.3-0.1
		l0.1-0.2l0.1-0.1l0.3-0.1l0.2-0.1l0.2-0.2l0,0l0,0.1l-0.1,0.3l-0.2,0.1l-0.2,0.1l-0.1,0.1l-0.2,0.1l-0.2,0.2l-0.3,0.2l-1.1,0.7
		l-0.2,0.2l-0.2,0.1l-0.3,0.1l-0.4,0.1l-0.1,0.1h-0.4l-0.2,0l-0.3,0.3l0,0.1l0,0.1l0.1,0l0.1-0.1l0.3-0.1l0.2,0.2l0.1,0.8l0.1,1
		l0,0.2l-0.1,0.3l-0.1,0.4l-0.3,0.5l-0.1,0.3l-0.2,0.4l0,0.3l-0.2,0.4l-0.1,0.2l-0.1-0.1l0-0.2l0-0.3l-0.1,0l-0.4-0.1l-0.1-0.1
		l-0.5-0.3l-0.2-0.2l-0.2-0.2l-0.1-0.3l-0.1,0l0,0l0,0.2l0.1,0.2l0.3,0.3l0.1,0.2l0.3,0.5l0.1,0.2l0.1,0.2l0.4,0.3l0.3,0.3l0.2,0.4
		l0.1,0.3l0,0.1l-0.2,1l-0.1,0.2l0,0.1l-0.8,0.2l-0.2,0.2l0,0l-0.3,0l-0.1-0.2l0-0.1l-0.2-0.3l0-0.2l-0.1,0l-0.2,0l-0.1,0.1h-0.2
		l-0.3-0.2l-0.1-0.3l0-0.1l-0.1-0.2l0.1-0.2l-0.1-0.1l-0.3-0.1l-0.1-0.1l0.3-0.2l0-0.1l-0.1-0.6l-0.2-0.1l-0.1-0.3l0.1-0.3l0.1-0.2
		l0.1-0.2l0.2-0.3l-0.1-0.1l-0.2,0l-0.1,0.4l-0.1,0.1l-0.4,0.3l-0.1,0.2l-0.1,0.1l0,0.1l0,0.1l0.1,0.1l0,0.1l-0.1,0.5l0,0.3l0.1,0.2
		l0.2,0.5l0.2,0.3l0.2,0.1l-0.1,0.1h-0.1l0,0.1l0,0.1l0.2,0.1l0.2,0.3l0.1,0.1l0,0.1l-0.1,0l-0.2-0.1l-0.5-0.2l-0.4,0l-0.3,0.1
		l0,0.1l0.1,0l0.2,0.2l0.1,0l0.2-0.1l0.1,0l0.5,0.3l0.4,0.1l0.2,0.2l0,0.1l-0.1,0.1l0.1,0.4l-0.1,0.1l-0.1,0.1v0l0.4,0.2l0.1,0.3
		l0,0.1l-0.1,0.1l-0.3-0.1l-0.1,0.1l0.1,0.2l0.1,0v0.1l-0.2,0.1l-0.1,0l0,0.1l0.1,0.1l0.3,0l0.3,0.1l0.1,0.1l-0.3,0.3h-0.1l-0.3-0.1
		v0.1l0.2,0.1l0.2,0.2l0.2-0.1l0.3-0.2l0.3,0l0.3,0l0,0.1l0.3,0.8l-0.2,0.2h-0.1l0,0.1l0.1,0.1l0.1,0.1l0.1,0.1l0.1,0.1l0.1,0.1
		l0.1,0.1l0.1,0.3l-0.1,0.1l0,0h-0.1l0-0.1l-0.2,0h-0.1l-0.1-0.1l-0.1,0l0.1,0.1l0,0.1l-0.6,0.2l-0.1,0.1l-0.2,0.2l-0.4,0.1
		l-0.1,0.2v0.1l0.1,0l0.1,0l0.4-0.2l0.4-0.1l0.2-0.1l0.3,0l0.1,0.1l-0.1,0.2l0.1,0.1l0.1,0.1l0.1-0.1l0-0.1l0.2-0.3h0.2l0.1,0.3
		l0,0.5l0.1,0.1v0.1l-0.3,0.2l-0.1,0.2l0,0.1l-0.2,0.2l-0.2,0.1l-0.2,0.1l-0.4,0l-0.1,0l0,0.1h-0.1l-0.1-0.2v-0.1l-0.1-0.1l-0.1,0
		l-0.1,0.1l0.1,0.4l-0.1,0.1l-0.1,0l0.1,0.2l0.2,0l0.2,0.2l-0.1,0.2l0.1,0.1l-0.4,0.6l-0.1,0l-0.2-0.1h-0.2l0,0.1l0.2,0.1l0.5,0
		l0.3-0.1l0.4-0.2l0.1-0.2l0.1,0l0.2,0.1l-0.2,0.4l-0.4,0.4l-0.4,0.1l-0.2,0.1l-0.5,0.1l-0.4,0.7l-0.2,0v0.1l0,0l-0.5,0.3l-0.3,0.3
		l-0.3,0.6l-0.1,0.7l-0.1,0.2l-0.2,0.1l-1,0.2l-0.1,0.1l-0.1,0.1l-0.3,0.2l-0.2,0.3l-0.3,0.4l-0.2,0.5l-0.1,0.3l0,0.3l0,0.3
		l-0.1,0.1l-0.1,0.1l-0.2,0l-0.1,0.1l-0.1,0.2l-0.2,0.3l-0.1,0.2l-0.4,0.3l-0.2,0.3l-0.2,0.2l-0.3,0.2l-0.2,0.2l-0.1,0.1l-0.2,0.1
		l-0.2,0l-0.1,0.1l0,0.1l0,0.1l-0.1,0.2l-0.2,0.2l-0.2,0l-0.1,0l0,0.1l0.1,0.1l0.1,0l0,0l0,0.1l-0.1,0.1l-0.2,0.2l-0.1,0.2l0,0.1
		v0.1l0.2,0.1l0,0.1l-0.1,0.1l-0.2,0.2l-0.2,0.4l-0.1,0.4l-0.1,0.4l-0.4,1l0,0.2v0.3l0.1,0.3l0.1,0.5l0.1,0.2l0.1,0.6l0.1,0.1
		l0.2,0.1v0.1l0.4,0.9l0.2,0.6l0.6,1.1l0.5,0.6l0.1,0.1l0.3,0.2l0.4,0.4l0.7,1v0.1l-0.2,0.3l0,0.2l0.2,0.4l0,0.2l0,0.1l0.6,0.7
		l0.4,1.1l0.7,0.9l0.1,0.3l0.2,0.8l0.1,0.9l-0.1,0.5l0.3,1l-0.2-0.1l-0.2,0.5l0,0.3l0.1,0.6l0,0.1l-0.2,0.4l-1,0.4l-0.3,0l-0.2,0.1
		l-0.4-0.1l-0.1-0.1l0-0.1l0.1-0.1h0.1l0.1,0.1l0.1-0.1l-0.1-0.2l-0.2-0.1h-0.1l-0.3-0.2l-0.7-0.9l-0.3-0.1l-0.6-0.1l-0.1-0.1
		l-0.5-1.3l-0.3-0.1l-0.3-0.1l-0.2-0.5l0-0.2l-0.1-0.4h-0.2l0,0.2l-0.1,0l-0.6-0.4l-0.4-0.9l-0.2-0.2l-0.2-0.2v-0.2l0.1-0.1l0.2-0.5
		l0.1-0.2l0.1-0.2l0-0.2l-0.1-0.1l-0.1,0l-0.1,0.2h-0.1l-0.2-0.4l-0.2,0.1l0,0.1l0.1,0.4l0.1,0.1l-0.1,0.3l-0.4-0.3l-0.1-0.2l0-0.6
		l0.2-0.8l0.1-0.7l-0.2-0.7l0.1-0.2l-0.1-0.1l-0.4-0.6l-0.6,0l-0.2-0.2l-0.1-0.2l-0.7-0.5l-0.2-0.4l-0.3-0.2l0-0.2l-1.2-0.6
		l-0.8,0.1l-0.1,0.3l0.1,0.1v0.1h-0.5l-0.7,0.6l-0.3,0l-0.1,0.1l-0.9,0.3l-0.1-0.1l0-0.1l0.1-0.1l0.1,0.1l0.1,0.1l0.1-0.1l0-0.1
		l0-0.2l-0.7-0.5l-0.1-0.1l0.1-0.1l0-0.1l-0.1,0l-0.3-0.1l-0.1-0.1l-0.1,0.1l0,0.2l-0.1,0l-0.5-0.3l-0.5-0.2l-0.5-0.1l-0.1-0.1
		l0.2-0.2V265h-0.2l-1.2,0.4l-0.3,0l-0.2,0.1l0,0l0.2-0.2l0-0.1l-0.1,0l-0.1,0.1h-0.1l-0.1-0.1l-0.1,0.1l-0.1,0.4l-0.1,0.1l-0.4,0.1
		l-0.1,0l0-0.2l-0.1,0l-0.3,0.3l-0.2,0l-0.2,0l-0.3-0.4l-0.1-0.4l0-0.1l-0.2-0.4l-0.2,0.4l-0.1,0.6l-0.1,0.2l-0.4-0.1l-0.1,0.1
		l-0.1,0.1l-0.1,0.1l-0.2-0.1l-0.1-0.1l-0.4,0.1l-0.3-0.1l-1.1,0.4l-0.5,0.4l-0.3,0l-0.7-0.1l-0.6-0.3l-0.2,0l-0.2,0.1l-0.4,0.4
		l0,0.2l0.2,0.2l0.2,0.1l0.5,0l0.3-0.2l0.2-0.1l0.3,0l0.1,0l0,0.1l-0.1,0.1l-0.2,0.1l0.1,0.2l0.2,0.1l0.1,0.1l0.1-0.1l0.2-0.4
		l0.5-0.2l0.2-0.1h0.1l0.1,0.1l-0.1,0.2l0.1,0.1l0,0.2l-0.2,0.1l-0.4,0.5l-0.4,0.3l0,0.3l0.1,0.2l0.5,0.3l0.9,0.4l0.1,0.2l-0.1,0.2
		l-0.2,0l-0.7,0.3l-0.1-0.6l-0.4-0.2l-0.8-0.3l-0.1-0.2l-0.1-0.1l-0.2,0.1l-0.1,0.5l0.1,0.1l0,0.1l-0.4,0.3l-0.2,0l-0.2-0.3l-0.1,0
		l-0.2,0.1l-0.1-0.1l-0.1,0l-0.4,0.4l-0.4,0l-0.1-0.1l-0.4-0.1l-0.6-0.8l-0.4-0.1l-0.4-0.2l-0.1-0.2l-0.1,0l0,0l0-0.1l0-0.1
		l-0.2-0.1l-0.1,0.1l-0.3-0.1l-0.1,0l-0.1-0.2h-0.2l-0.5,0.4l0.2,0.3l-0.1,0.1l-0.8,0l-1.3-0.2l-0.8-0.3l-1.7,0.3l0,0.1l0,0
		l-0.6,0.1l-1.1,0.5l-0.1-0.1l-0.5,0.1l0-0.1l0.1-0.4h-0.1l-0.5,0.2l-0.1,0.3l0.3,0.4l0,0.1l-0.7,0.6l-0.1,0.4l-1.5,1l-0.9,0.3
		l-0.1,0.1h-0.1l-0.1-0.1l0.1-0.1l0-0.1l-0.2,0.1l-0.1,0.1l-0.6,0.2v0.1l0.3,0.2l0,0.1l0,0.1l-0.1,0l-0.6,0.2l-0.1,0l-0.1,0l-0.1,0
		l-0.1,0.1v0.3l0,0.1l-0.1,0.1h-0.1l-0.1-0.1l-0.1,0.1l-0.1,0l-0.1,0l-0.1,0.2l0.2,0.1l-0.1,0.4l-0.4,0.3l-0.3-0.2l-0.2,0.2l0.1,0.4
		l0.2,0.1l-0.2,0.8l-0.4,0.2l-0.1,0.1v0.1l0,0.1l0.1,0l0.1,0.1l0,0.3l-0.3,0.8l0.2,0.6l0.4,1.4l0.3,0.3l0,0.1l0.2,0.1v0.2l-0.1,0.1
		l-0.3-0.1l-0.3,0.4l-0.3-0.1l-0.6-0.4l-0.2,0l-1.1-0.1l-0.8-0.5l-0.6-0.2l-0.5-0.3l-0.4,0l-0.1-0.3l-0.6-1.1l-0.2-0.2l-0.1-0.7
		l-0.2-0.2l0.1-0.6l-0.1-0.2l-0.2-0.3l-0.1-0.1l-0.6-0.6l-0.1-0.2l-0.8-1l-0.1-0.4l-0.8-1.8l0-0.2l-0.3-0.4l-0.5-0.4l-0.3-0.4
		l-0.2-0.1l-0.1,0l0-0.1l-0.1,0l-0.1-0.3l-0.5-0.3l-0.2,0.1l-0.4-0.1l-0.2-0.1l-0.7-0.1l-0.2-0.1l-0.2-0.1l-0.1,0.1l-0.1,0.2l-0.1,0
		l-0.4-0.1l-0.2,0.1l-0.2,0.4l-0.5,1.2l-0.2,0.1l-0.3,0.3l-0.2,0.1l-0.3-0.1l-1.2-0.7l-1.7-1.3l-0.4-0.7l-0.1-0.3l0-0.9l-0.3-0.4
		l-0.1-0.1l0-0.3l-0.1-0.2l-0.1-0.2l-1.2-0.9l-1.4-1.6l-0.5-0.3l-0.2-0.4l-0.1-0.3l-0.5-0.3l-4.2,0.4l-2.2,0.2v0l-5.1-0.8l-8.6-5
		l0.2-0.7l-5.7-0.6l-0.1-0.1l-0.1-0.3l0.1-0.1l0.1,0l-0.1-0.1l-0.1,0l-0.1-0.2l0-0.1l0-1l-0.5-1l-0.3-0.3l-0.2-0.4l-0.6-0.5l-0.4,0
		l-0.2-0.2l0.1-0.3l-0.1-0.2l0-0.2l-0.2-0.2l-0.6-0.1l-0.3-0.1l-0.4-0.4l-0.2-0.6l-0.4-0.3l-0.4-0.1l-1.1-0.5h-0.4l-0.4-0.3
		l-0.3-0.3l0-0.2l0.2-0.2l0.1-0.5l0.1-0.3l0.1-0.1l-0.1-0.4l-0.3-0.1l0-0.3l0.1-0.1h0.1l0-0.3l-0.3-0.2l-0.7-1.3l0-0.4l-0.1-0.3
		l-0.1-0.3l-0.5-0.7l0-0.7l0.1-0.1l0.1,0l0.3-0.3l0-0.5l-0.2-0.2l-0.4-0.2l-0.4-0.3l-0.1-0.4l0-1l0.1-0.1l-0.1-0.2l0.1-0.1l0.1-0.5
		l0.1,0l0.1,0.2l0,0.4l0.1,0.1l0.4,0.2l0.1-0.1l0-0.3l-0.2-0.5l-0.1-0.3l0.1-0.4l-0.1,0l-0.2,0.3l0,0.2l-0.1,0.1l-0.3-0.1l-0.4-0.5
		l-0.3-0.1l0.1-0.3v-1.1l-0.4-0.5l-0.2-0.4l-0.3-0.9l0.2-0.3l-0.1-0.3l0-0.2l0.2-0.6l0.2-0.3l0.1-0.2l-0.1-0.6l-0.3-0.6l0-0.2
		l-0.1-0.2l-0.1-0.1l-0.1-0.3l0-0.4l0.1-0.1l0-0.3l0.3-0.5l0.8-0.9l0-0.2l0.1-0.4l0.2-0.2l0.2-0.4l0.1-0.8l-0.2-0.4l0.2-0.4l0.1-0.2
		l-0.1-0.1l-0.2-0.6l0.1-0.3v-0.3l0.2-0.4l-0.1-0.9l0.2-0.2l0.2-0.1l0.1-0.2l0.1-0.3l0.1-0.1l0.1-0.4l0.1,0l0.6-0.7l0.3-0.6l0.5-0.9
		l0.5-1.6l0.4-0.7l0.4-1l0.4-1.3l0.2-0.4l0.1-0.4v-0.1l0.2-0.1l0.2,0.1l0.1,0l0-0.1l-0.4-0.2l-0.1,0l-0.1,0l0-0.1l0.1-0.4l0.1-0.1
		v-0.2V210l0.1,0l0.1,0l0,0.2l0,0.1l0,0.1l0,0.1l0.3-0.2l0-0.1V210l0.1-0.1l-0.1-0.2l-0.1-0.1l0-0.4l0.1,0l0.2,0l0.1-0.1l0.3-0.1
		l-0.2-0.2v-0.1l-0.1-0.1l-0.2,0.1v-0.3v-0.2l0.1-0.4l0-0.3l0-0.3l0.1-0.6l0.1-0.2l-0.3-0.8l0-0.6l0.1-0.3l0.1-0.4l1.5,1l0.8,0.4
		l0.6,0.2l0.4,0.2h0.3l0.1,0.1l0.1,0.2l0.1,0.7l-0.1,0.2l-0.2,0.2l-0.1,0.3v0.3l0,0.1l0,0.1l-0.1,0.1v0.1l0.1,0.1l0.3-0.1l0.2-0.6
		l0.1-0.1l0.1-0.3l0.4-0.4l0-0.2l-0.2-0.6l-0.3-0.8l0-0.1l0.1,0l0.2,0l0.2-0.4l0-0.4l-0.2,0l0-0.3l0-0.5l3.1,0.9l3,0.7l4.8,1.1h0
		l0,0l1.8,0.5l2.2,0.4l5.9,1l6,1l9.4,1l6.8,0.5l6.7,0.2l4,0l0-0.7l0-0.4h0.3l0.4,0.2l0,0.7l0.1,0.4l0,0.4l0.4,0.3l0.2,0l0.3,0.1
		l0.1,0.1l0.3,0l0.4,0.1l0.1,0.1v0.1l0.6,0l0.2-0.2l0.9-0.1l0.6,0.2h0.1l-0.1,0.2l0.2,0.1l0.1,0l0.1,0.1l0.1,0.4l0.2,0.1l0.2-0.3
		l0.1-0.1l0.2,0.1l0.1,0.3l0.4,0.1l0.1,0.2l0.2,0.2h0.3l0.3-0.1l0.8-0.5l0.1,0.1l0.2,0.2l1.2,0l0.2,0l0.2,0.1l0.3,0.2l0.2-0.1l0.5,0
		l-0.3,0.3l-0.7,0.4l-0.4,0.1l-0.3,0.1l-0.3,0.3l-0.6,0.3l-0.3,0.2l-1,1.1l-1.4,1.3l0.2,0.1l0.3,0l0.4,0l0.6-0.3l1-0.5l0.2,0
		l0.1,0.1v0.2l-0.1,0.1l0,0.1l-0.1,0.4l0.4-0.2h0.2l0.2,0.2l0.2,0l0.4-0.2l0.2-0.1l0.4-0.2l0.1-0.2l0.2,0l0.8-0.3l0.6-0.3l0.7-0.7
		l0.2-0.1l0.5-0.6l0.4-0.2l0.6-0.1l0.1,0.1l0,0.1l-0.3,0.2l-0.1,0l-0.1,0.3l-0.4,0.5l-0.2,0.2l-0.1,0.2l-0.1,0.4l0.1,0.3l0.1-0.2
		l0.4-0.3l0.3,0l0.2-0.1l0.8,0.4l0.6,0.7l0.5-0.1l0.3,0l0.2,0.1l0.2,0l0.1,0l0.2,0.1v0.1l0.1-0.1l0.1-0.2l0.6-0.4l1.9-0.5l0.5-0.3
		l0.2-0.1l0.1,0.1l-0.1,0.3v0.1l0.2,0.4l0.2,0.1l0.1-0.1l0.3,0l0.1-0.1l0.6-0.1l0.3,0.2l0.2,0.5l0.2,0.2l0.4,0.2l0.5-0.1l0.1,0
		l0.1,0.1l0,0.2l-0.2,0.2l-0.3,0l-0.2,0l0-0.1h-0.1l-0.3,0.1l-0.2-0.1l-0.2,0l-0.5,0.1l-0.3-0.1l-0.1,0.1l0.1,0.3l-0.1,0.1l-0.1-0.1
		l-0.3-0.3l-0.8-0.1l-0.2,0l-0.2-0.1l-0.5,0.4h-0.1l-0.2,0.1l-0.1,0.1l-0.1,0l-0.3-0.1l-0.3,0.1l0,0.2l-0.1,0.1l-0.7,0.6l-0.1,0
		l-0.1-0.1l0.3-0.4l0-0.2l-0.4,0l-0.1,0.3l-0.1,0.1l-0.1-0.2l-0.1-0.3l-0.1,0l-0.1,0.4l-0.2,0.4l-0.1,0.4l-0.1,0.3l-0.3,0.5v0.3
		l0,0.1l-0.1,0.1l-0.4,0.4l-0.3,0.6l-0.1,0.4l0,0.2l0.1,0.1l0.3-0.2l0.4-0.6l0.4-0.3l0.2-0.1l0.1-0.2l0.2-0.1l0.1-0.2l0-0.2l0-0.2
		l0.1-0.1l0.1-0.2l0.1-0.1l0.1,0l0.1,0.1l0,0.4l-0.3,0.8l-0.1,0.2l-0.1,0.3v0.2l-0.3,0.6v0.5l0,0.4l-0.3,0.3l-0.1,0.2l0.1,0.4l0,0.7
		l-0.1,0.2l-0.2,0.7l0.1,1.1l0.3,0.7l-0.1,0.1l0.1,0.1l0,0.1l0,0.3v0.5l0.2,0.4l0.2,0.2l0.1,0.2l0.1,0.7l0.1,0.2l0.1,0.1l0.3,0.2
		l0.4-0.1l0.2-0.1l0.3-0.1l0.2-0.1l0.1-0.1l0.3-0.3l0.4-0.9l0.2-0.4l0.1-0.4l0.1-0.6l0.1-0.1v-0.1l-0.1-0.1V228l-0.3-0.7l-0.4-0.9
		l-0.2-0.3l0.1-0.4l-0.2-0.7l0-0.2l0.2-0.2l0.2-0.4l0-0.3l0-0.5l0-0.5l0.2-0.3l0-0.2l0.1-0.2l0.3-0.2h0.1l0.1-0.1l0.1-0.3l0.1-0.2
		l0.1-0.1l0,0.1l-0.1,0.1l0.1,0.3l-0.1,0.3l0.1,0.3l0.3-0.1l0.2-0.4l-0.1-0.3l0-0.3l0.1-0.3l0.2-0.2l0.1-0.1l0.2-0.1l0.1-0.1l0-0.1
		l-0.1,0l-0.1-0.1l0-0.3l0.2-0.4l0.2-0.1l0.2-0.2l0.3,0.2l0.4,0.1l0.4,0.1l0.2,0.2l0.6,0.1l0.8,0.3l0.3,0.1l0.3,0.5l0,0.1l-0.3,0.1
		l-0.1,0.2l0.1,0.1l0.2,0.3l0.1,0.2l0.1,0.4v0.7l-0.2,0.4l-0.2,0.1l-0.1,0.2l0,0.2l-0.1,0.2l-0.4,0.2l-0.2,0.2l-0.1,0.5l0.1,0.2
		l0.1,0.1l0.3,0.1l0.1,0.1h0.1l0.8-1.1l0.3-0.3l0.3-0.2l0.7,0.2l0.6,1.7l0.1,0.7l0.1,0.3l-0.1,0.5l0.1,0.4l0,0.2l-0.1,0.1l-0.1,0.1
		l-0.1,0l-0.1-0.2l-0.2,0.2l0,0.2l-0.1,0.1v0.4l-0.4,0.3l-0.1,0.4l0,0.4l-0.1,0.2l-0.4,0.7l0,0.1v0.1l0.3-0.1l0.1,0l0.7,0.2l0.3,0
		l0.1,0l-0.1,0.2l0.1,0l0.1-0.1l0.4,0.1l0.2,0l0.5-0.4l0.2-0.1h0.4l0.2,0l0.2-0.1l0.6-0.7l0.2-0.2l0.5-0.3l1.1-0.6l0.2-0.1l0.4-0.4
		l0.1-0.3h0.1l0.1,0.1l0.1,0l0.5-0.5l0.3-0.3l0.9-0.9l0.2-0.4l0.2-0.1l0.1-0.2l0-0.2l-0.5-0.6v-0.2l0.1-0.4l0.3-0.2l0.6-0.3l0.6-0.1
		l0.6-0.1l0.3,0.1l0.4,0.1l1.1-0.3l0.5-0.2l0.6-0.7l0.4-0.2l0-0.4l-0.2-0.3l-0.1-0.2l0.1-0.1l0-0.1l-0.2-0.1l-0.2,0l-0.1-0.1
		l-0.1-0.3l0.1-0.1l0.7-0.7l0.1-0.1l0.1-0.4l-0.1-0.2l0.1-0.2l0.7-0.9l0.7-0.7l0.2-0.1l0.1,0l0,0.1l2.8-0.7l3.8-0.9l0.1-0.6
		l-0.1-0.2l0-0.1h0.2l0.1-0.2l0.1,0.1l0.2,0l0.1-0.1l0.2-0.2l0.2,0.1l0.1,0l0.1-0.2l0-0.3h0.2l0-0.1l-0.1-0.3l0.1-0.2l0.4-0.5v-0.3
		l0.1-0.3l-0.3-1l0.1-0.2l0.1-0.1l0.1-0.2l0-0.3l-0.1-0.2l0-0.4l0.7-2.5l0.4-0.2l0.1,0l0.1,0.1l0,0.3l0.2,0.2l0.1,0l0.5-0.4l0.3-0.2
		h0.1l0.1-0.2l0.1-0.1l0.2,0l0.2,0l0.9,0.6l1,3.3l0,0.1l0.1,0.4l0.1,0.1h0.2l0.3,0.1l0.1-0.1h0.1l0.1,0.1l0,0.1l-0.1,0.1l0.2,0.7
		l0.2,0.1l0.2,0l0.1-0.1l0.1,0l0.2,0.1l0.2,0.4l0,0.2l-0.1,0l-0.1,0.2l0.1,0.1l0,0l0.2,0.1l0,0.2L-107.5,214.8z"/>
</g>
</svg>
