<?xml version="1.0" encoding="utf-8"?>
<!-- Generator: Adobe Illustrator 19.1.0, SVG Export Plug-In . SVG Version: 6.00 Build 0)  -->
<svg version="1.1" id="Layer_1" xmlns="http://www.w3.org/2000/svg" xmlns:xlink="http://www.w3.org/1999/xlink" x="0px" y="0px"
	 viewBox="-244 166 150 150" style="enable-background:new -244 166 150 150;" xml:space="preserve">
<style type="text/css">
	.st0{fill:#FFFFFF;}
</style>
<g>
	<path class="st0" d="M-129.9,232.1c0-1.1-0.9-2-2-2h-29.7c-1.1,0-2,0.9-2,2v28.2c-1.9-1.5-4.3-2.5-7-2.5c-6.1,0-10.9,4.9-10.9,10.9
		c0,6.1,4.9,10.9,10.9,10.9c5.9,0,10.7-4.6,10.8-10.5c0-0.1,0-0.2,0-0.3v-24.3h21.6c1.1,0,2-0.9,2-2c0-1.1-0.9-2-2-2h-21.6v-6.5
		h25.7v22.3c-1.9-1.5-4.3-2.5-7-2.5c-6.1,0-10.9,4.9-10.9,10.9s4.9,10.9,10.9,10.9c6.1,0,10.9-4.9,10.9-10.9c0-0.1,0-0.1,0-0.2v-0.1
		L-129.9,232.1L-129.9,232.1z M-170.5,275.5c-3.8,0-7-3.1-7-7c0-3.8,3.1-7,7-7c3.8,0,7,3.1,7,7S-166.7,275.5-170.5,275.5z
		 M-140.8,271.6c-3.8,0-7-3.1-7-7c0-3.8,3.1-7,7-7c3.8,0,7,3.1,7,7C-133.9,268.6-137,271.6-140.8,271.6z"/>
	<path class="st0" d="M-165.8,217.3v-10.5c0-0.7-0.4-1.4-0.9-1.7c-0.5-0.4-1.3-0.4-1.9-0.1l-20.1,9.8c-0.7,0.4-1.1,1-1.1,1.8v10.5
		v0.1v17.6c-1.9-1.5-4.3-2.5-7-2.5c-6.1,0-10.9,4.9-10.9,10.9c0,6.1,4.9,10.9,10.9,10.9c5.9,0,10.7-4.6,10.8-10.5c0-0.1,0-0.2,0-0.3
		v-24.9l19.1-9.4C-166.2,218.7-165.8,218-165.8,217.3z M-196.9,260.2c-3.8,0-7-3.1-7-7c0-3.8,3.1-7,7-7c3.8,0,7,3.1,7,7
		C-190,257-193,260.2-196.9,260.2z M-169.8,216L-186,224v-6.1l16.2-7.9V216z"/>
</g>
</svg>
