<?xml version="1.0" encoding="utf-8"?>
<!-- Generator: Adobe Illustrator 19.1.0, SVG Export Plug-In . SVG Version: 6.00 Build 0)  -->
<svg version="1.1" id="Layer_1" xmlns="http://www.w3.org/2000/svg" xmlns:xlink="http://www.w3.org/1999/xlink" x="0px" y="0px"
	 viewBox="-244 166 150 150" style="enable-background:new -244 166 150 150;" xml:space="preserve">
<style type="text/css">
	.st0{fill:#FFFFFF;}
</style>
<path class="st0" d="M-216.7,230.8v33.4c0,1.2,0.9,2.1,2.1,2.1h7.7h19.2h11.3c0.1,0,0.2,0,0.3,0h3.4c0.7,0,1.4-0.4,1.8-1
	c2.9-5,9.1-12.8,13.2-12.8c2.7,0,4.2,0.5,6.2,1c2.6,0.8,5.5,1.6,11.8,1.6c25.8,0,25.8-5.7,25.8-7.6c0-5-8.7-7.6-25.8-7.6
	c-6.2,0-9.2,0.9-11.8,1.6c-1.9,0.6-3.4,1-6.2,1c-4.1,0-10.2-7.9-13.2-12.8c-0.4-0.6-1.1-1-1.8-1h-3.4c-0.1,0-0.2,0-0.3,0h-11.3
	h-19.2h-7.7C-215.7,228.7-216.7,229.6-216.7,230.8z M-204.5,262.1c1.7-1.9,3.1-5.1,2.6-9c-0.9-6.8-6.4-4.8-6.4-10.3
	c0-5.4,8.2-2.3,8.6-5.8c0.3-3.4-6.2-2.2-6.5-4c0-0.1,0-0.1,0-0.1h1.5h15v29.2H-204.5z M-178.5,232.9v29.2h-7.1v-29.2H-178.5z
	 M-173.9,232.9c2.2,3.5,9.3,13.9,16.1,13.9c3.3,0,5.3-0.6,7.3-1.2c2.4-0.7,4.9-1.5,10.6-1.5c13.9,0,21.1,2,21.6,3.4
	c-0.5,1.4-7.6,3.4-21.6,3.4c-5.6,0-8.1-0.7-10.6-1.5c-2.1-0.6-4-1.2-7.3-1.2c-6.8,0-13.9,10.3-16.1,13.9h-0.3v-29.2H-173.9z"/>
</svg>
