<?xml version="1.0" encoding="utf-8"?>
<!-- Generator: Adobe Illustrator 19.1.0, SVG Export Plug-In . SVG Version: 6.00 Build 0)  -->
<svg version="1.1" id="Layer_1" xmlns="http://www.w3.org/2000/svg" xmlns:xlink="http://www.w3.org/1999/xlink" x="0px" y="0px"
	 viewBox="-244 166 150 150" style="enable-background:new -244 166 150 150;" xml:space="preserve">
<style type="text/css">
	.st0{fill:#FFFFFF;}
</style>
<g>
	<g>
		<path class="st0" d="M-147.8,236.5c0-0.1-0.2-0.4-0.3-0.5c-0.9-0.4-1.3-0.6-1.9-0.9c-6.1-2.5-12.3-4.7-18.6-6.7
			c-2-0.7-4.1-1.4-6.1-1.9c-0.1,0.1-0.2,0.2-0.2,0.2c-0.7,0.8-1.5,1.4-2.4,1.8c-0.7,0.3-1.4,0.6-2.1,0.8c0.5,0.4,1.2,0.7,1.7,0.8
			c1.3,0.4,2.6,0.6,3.9,1.2c2.7,1.2,5.1,3.1,7.2,5.2c1.7,1.6,3.1,3.5,4.9,5.1c2.1,1.9,4.3,3.5,6.6,5.1c3.8,2.5,7.7,4.8,11.7,6.8
			c0.6,0.3,1.2,0.6,1.8,0.8c0-0.2,0-0.3,0-0.4c-0.2-0.9-0.5-1.7-0.7-2.5c-1.2-3.8-2.6-7.5-4.1-11.2
			C-146.8,239-147.3,237.7-147.8,236.5z"/>
		<path class="st0" d="M-235.2,271.7C-235.2,271.7-235.2,271.7-235.2,271.7C-235.2,271.7-235.2,271.7-235.2,271.7
			C-235.3,271.7-235.3,271.7-235.2,271.7z"/>
		<path class="st0" d="M-139.6,200.4c-0.2-0.2-0.9-0.8-1.9-0.8c-1.6-0.1-3.4,1.3-3.4,3c0,1.6,1.6,3.1,3.4,3c1.4-0.1,2.5-1,2.8-2.1
			C-138.1,201.7-139.5,200.5-139.6,200.4z"/>
		<path class="st0" d="M-203.7,250.9c-0.2-0.2-0.9-0.8-1.9-0.8c-1.6-0.1-4.5,1.2-4.5,2.9c0,1.6,2.7,3.1,4.5,3c1.4-0.1,2.5-1,2.8-2.1
			C-202.2,252.2-203.6,250.9-203.7,250.9z"/>
		<path class="st0" d="M-163,253.5c-0.3,0-1.2,0.1-1.9,0.8c-1.2,1.1-2.2,4.1-1,5.3c1.2,1.1,4.1,0.2,5.3-1.1c0.9-1,1-2.5,0.5-3.5
			C-161,253.3-162.9,253.5-163,253.5z"/>
		<path class="st0" d="M-170.9,240.3c-0.2-0.2-0.8-0.7-1.7-0.8c-1.4-0.2-4.2,0.7-4.2,2c-0.1,1.3,2.3,2.6,3.9,2.6
			c1.2,0,2.3-0.6,2.7-1.5C-169.6,241.5-170.8,240.4-170.9,240.3z"/>
		<path class="st0" d="M-182.4,258.7c-0.2-0.1-0.7-0.4-1.3-0.4c-1,0.1-2.7,1.3-2.5,2.5c0.2,1.1,2.1,1.8,3.2,1.5
			c0.8-0.2,1.4-1,1.5-1.7C-181.3,259.5-182.4,258.8-182.4,258.7z"/>
		<path class="st0" d="M-220.3,280.9c-0.2-0.1-0.7-0.4-1.3-0.4c-1,0.1-2.7,1.3-2.5,2.5c0.2,1.1,2.1,1.8,3.2,1.5
			c0.8-0.2,1.4-1,1.5-1.7C-219.2,281.6-220.2,280.9-220.3,280.9z"/>
		<path class="st0" d="M-130.1,276.3c-0.1,1.6,2.8,3.3,4.8,3.3c1.5,0,2.8-0.8,3.3-1.8c0.7-1.6-0.8-3-0.9-3.1c-0.2-0.2-1-0.8-2-1
			C-126.7,273.5-130,274.6-130.1,276.3z"/>
		<path class="st0" d="M-127.7,267.9c0.9-0.9,0.2-2.1,0.1-2.2c-0.1-0.2-0.4-0.8-1.1-1.1c-1.1-0.5-3.5-0.6-4,0.5
			c-0.4,1,1.1,2.8,2.4,3.3C-129.4,268.7-128.3,268.5-127.7,267.9z"/>
		<path class="st0" d="M-183.5,271.3c-0.9-0.5-3-0.5-3.4,0.4c-0.4,0.9,0.9,2.4,2,2.8c0.8,0.3,1.7,0.1,2.2-0.4
			c0.7-0.7,0.2-1.8,0.1-1.9C-182.6,272.1-182.9,271.6-183.5,271.3z"/>
		<path class="st0" d="M-153.2,273.1c-0.1,1.6,2.8,3.2,4.8,3.3c1.5,0,2.8-0.8,3.3-1.8c0.7-1.6-0.7-2.9-0.9-3c-0.2-0.2-0.9-0.8-2-1
			C-149.8,270.4-153.1,271.4-153.2,273.1z"/>
		<path class="st0" d="M-191.4,246.1c-1.2-0.7-4-1-4.7,0.4c-0.7,1.3,0.8,3.6,2.2,4.2c1.1,0.5,2.4,0.3,3.1-0.4c1.1-1,0.6-2.6,0.5-2.7
			C-190.4,247.3-190.7,246.6-191.4,246.1z"/>
		<path class="st0" d="M-159.7,224.2c1.1,0.5,2.4,0.3,3.1-0.4c1.1-1,0.6-2.6,0.5-2.7c-0.1-0.3-0.4-1-1.1-1.4c-1.2-0.7-4-1-4.7,0.4
			C-162.6,221.2-161.1,223.5-159.7,224.2z"/>
		<path class="st0" d="M-165.4,214.3c0.7,0.3,1.6,0.1,2.1-0.4c0.8-0.8,0.5-1.9,0.4-2c-0.1-0.2-0.2-0.7-0.7-1
			c-0.8-0.5-2.7-0.6-3.2,0.4C-167.3,212.2-166.3,213.8-165.4,214.3z"/>
		<path class="st0" d="M-132.9,211.6c-0.8-0.5-2.6-0.8-3-0.1c-0.4,0.7,0.7,2.1,1.7,2.5c0.7,0.4,1.5,0.3,1.9-0.1
			c0.7-0.5,0.2-1.5,0.2-1.5C-132.1,212.3-132.4,211.9-132.9,211.6z"/>
		<path class="st0" d="M-143.4,194.7c0.1-0.2,0.4-0.7,0.2-1.3c-0.3-1-1.8-2.5-3-2.1c-1.1,0.4-1.6,2.4-1.1,3.5c0.3,0.8,1.2,1.3,2,1.2
			C-144,196-143.4,194.8-143.4,194.7z"/>
		<path class="st0" d="M-216.3,267.9c-1.3-0.8-4.2-1.4-4.8-0.4c-0.5,0.9,1.3,3.1,2.9,3.9c1.2,0.6,2.4,0.6,3.1,0.1
			c1-0.7,0.2-2.1,0.1-2.2C-215.1,269.1-215.5,268.4-216.3,267.9z"/>
	</g>
	<path class="st0" d="M-101.7,279.5c-0.9-2.3-2.8-4.2-4.4-6c-2.4-2.5-5-4.8-7.6-7.1c-6.2-5.5-12.3-11.1-18.2-17
		c-1.1-1.1-2.3-2.3-3.4-3.5c-0.3-0.3-0.6-0.7-0.9-1c0.1,0.1-0.5-0.7-0.6-0.8c-0.4-0.6-0.8-1.1-1.2-1.7c-2.6-3.9-5.6-8.7-5.5-13.6
		c0-1.8,0.5-3.3,2.1-3.9c2-0.8,4.4-0.8,6.5-0.6c0.8,0.1,1.6,0.2,2.4,0.4c0.1,0,0.8,0.3,0.8,0.2c0.3,0.1,0.6,0.3,0.9,0.4
		c2.1,0.9,4.3,1.9,6.5,2.6c2.4,0.8,5,1.5,7.6,1.5c2.4,0,4.5-0.8,6.3-2.4c4-3.5,6.5-9.5,5.6-14.8c-0.3-1.8-1.5-3.1-2.6-4.4
		c-1.4-1.5-2.9-2.9-4.5-4.3c-1.4-1.3-2.9-2.5-4.4-3.6c-0.4-0.3-0.7-0.6-1.1-0.9c0-0.1-0.1-0.1-0.1-0.2c-2.3-4.7-5.1-9.9-9.2-13.2
		c0-0.1,0-0.1,0-0.2c0.8-3.5,0.4-7.5-3.2-9.1c-3-1.4-6.5-0.9-9.6-0.3c-1.4,0.3-2.9,0.6-4.3,1c-0.5,0.1-1,0.3-1.4,0.4
		c-0.1,0-0.3,0.1-0.4,0.1c-0.1,0-0.2-0.1-0.4-0.2c-0.7-0.3-1.3-0.6-2-0.9c-1-0.5-2-1-3.1-1.4c-1.5-0.6-3-0.4-4.2,0.7
		c-1.5,1.3-2.3,3.3-3.4,4.9c-0.4,0.5-1,1.2-1.8,1.5c-1.2,0.5-2.5,0.4-3.8,0.3c-2.9-1.3-6.4-1.7-8.9,0.7c-1.8,1.8-2.6,4.3-2.1,6.7
		c0,0,0,0,0,0c-1.8,1.6-3.6,3.3-5.2,5c-2.2,2.3-4.4,4.8-5.5,7.8c-0.5,1.2-0.8,2.9,0,4c0.3,0.4,0.7,0.6,1.1,0.8
		c-0.3,0.4-0.6,0.7-0.9,1c-1,1.1-2.1,2.3-2.9,3.6c-0.8,1.4-1.4,3.4-0.3,4.7c0.2,0.2,0.4,0.4,0.7,0.6c-0.4,0.8-0.9,1.6-1.4,2.3
		c-1.3,1.9-2.7,3.8-4.2,5.5c-0.1,0.1-0.5,0.4-0.7,0.6c-0.2,0.1-0.5,0.1-0.7,0.1c-0.5,0.1-0.3,0-0.9,0.1c-2.2,0.2-4.4,0.4-6.7,0.5
		c-3.8,0.2-8,0.1-11.6,1.3c-5.4,1.9-10.2,4.6-14.5,8.3c-1.8,1.5-4.1,3.6-4.3,6.2c-0.1,1.3,0.5,2.8,1.9,3c0,0,0.1,0,0.1,0
		c0,0-0.1,0.1-0.1,0.1c-1.7,2-3.4,4-4.8,6.2c-1.5,2.2-2.6,4.8-2.8,7.5c-0.1,1.2,0,2.5,1.1,3.1c0.8,0.5,1.7,0.4,2.5,0.1
		c-1.3,2.5-2.7,5.1-3.1,7.9c-0.2,1.4-0.3,3.1,0.9,4.2c1.2,1.1,2.8,1,4.2,0.5c-0.1,1.5-0.1,3,0.2,4.4c0.4,2.6,1.7,4.3,3.3,6.3
		c3.3,4,7,8,11.1,11.2c5.7,4.6,14.2,1.6,17.9-3.9c1.8-2.7,2.6-5.8,0.9-8.7c-1.4-2.5-3.6-4.5-5.1-6.9c-0.3-0.5-0.6-1-0.8-1.6
		c-0.1-0.4-0.1-0.6,0.1-1.1c0.5-1.3,1.7-2.3,2.7-3.1c1.7-1.3,3.7-2.5,5.8-3.1c0.3,0.4,0.5,0.7,0.8,1.1c0.9,1.3,1.9,2.6,2.9,3.9
		c1.8,2.2,3.5,4,6.2,5.1c2.7,1.1,5.7,1.7,8.6,2.2c2.8,0.4,5.5,0.7,8.3,0.7c1.8,0,3.8-0.1,5.6-0.6c6,6.6,12.4,12.8,18.7,19.1
		c2.2,2.1,4.3,4.6,6.8,6.4c5.6,4.1,13.1,2.2,17.7-2.5c1.4-1.5,2.7-3.2,3.1-5.2c0.3-1.6,0.2-3.1-0.1-4.7c0.6,0.2,1.2,0.4,1.9,0.5
		c5.5,0.9,12-2.1,14.5-7.1C-101,284.8-100.7,282.1-101.7,279.5z M-116.4,214.9c0.3-0.7,1.6-0.7,2.4-0.3c0.5,0.3,0.8,0.7,0.8,0.8
		c0,0.1,0.5,1-0.1,1.5c-0.4,0.3-1.2,0.4-2,0.1C-116.1,216.6-116.7,215.6-116.4,214.9z M-142.3,244.4c0.7,2,1.5,4,2.1,6
		c0.5,1.5,1.1,3.3,1.2,4.9c0,1.4-0.9,2.2-2.2,1.7c-1.6-0.6-3.2-1.4-4.7-2.2c-4.6-2.4-9.1-5.1-13.2-8.2c-1.9-1.4-3.8-3-5.5-4.7
		c-1.7-1.8-3.2-3.7-5.2-5.3c-2.1-1.8-4.5-3.4-7.2-4c-2-0.4-4.9-1.6-5.4-3.9c-0.1-0.4,0-0.8,0.3-1c0,0,0,0,0,0c0.1,0,0.2-0.1,0.3-0.1
		c0.6-0.2,1.2-0.4,1.9-0.6c0.6-0.2,1.3-0.4,1.9-0.8c0.7-0.4,1.4-0.8,2-1.4c0.3-0.3,0.6-0.6,0.8-0.9c0.4-0.1,0.8,0,1.4,0.2
		c3.2,0.8,6.3,2,9.5,3.1c3.6,1.2,7.2,2.5,10.8,3.9c2.2,0.8,4.7,1.5,6.7,2.8c0.2,0.1,0.3,0.3,0.5,0.4c0.2,0.6,0.4,1.1,0.6,1.7
		c0.5,1.2,1,2.4,1.6,3.6C-143.5,241.3-142.9,242.8-142.3,244.4z M-126.7,191.1c2.3,2.6,3.9,5.6,5.4,8.7c0.3,0.6,0.5,1.4,1,1.9
		c-2.4,4.6-5.1,16.6-6,21.3c-2.2-1-4.4-2-6.7-2.3c-3.4-0.5-8.4-0.7-11.4,1.5c-4-2.1-8.4-4-11.1-7.9c-2-3.1-2.7-6.7-2.5-10.4
		c0.2-4,1.6-8.1,4-11.3c3.7-4.8,9.3-7.3,15.4-7.1c2.4,0.1,5.1,0.4,7.3,1.6C-129.5,188.2-128,189.5-126.7,191.1z M-157.7,185
		c1.5-1,2.5-2.6,3.4-4.1c0.4-0.7,0.8-1.3,1.3-1.9c0.1-0.1,0.2-0.3,0.3-0.4c0,0,0,0,0,0c0,0,0.1,0,0.1,0c0.3,0.1,0.7,0.2,0.8,0.3
		c1,0.4,2.2,1,3.2,1.5c1.5,0.7,2.5,1.2,4.1,0.8c1-0.2,2-0.6,3-0.8c2.9-0.7,5.2-1.3,8.1-1c0.1,0,0.2,0,0.3,0c0.2,0,0.4,0.1,0.6,0.1
		c0.3,0.1,0.6,0.2,0.9,0.3c0,0,0.4,0.2,0.5,0.3c0,0,0.3,0.2,0.4,0.4c0.2,0.3,0.3,0.6,0.3,0.4c0.1,0.1,0.1,0.3,0.1,0.4
		c0,0,0.1,0.4,0.1,0.4c0.1,0.6,0,1.2,0,1.8c-1-0.5-2.1-0.8-3.2-1.1c-6.4-1.4-13.4-0.7-18.8,3.3c-0.9,0.6-1.7,1.4-2.5,2.1
		c-1.2-0.8-2.5-1.6-3.8-2.3C-158.2,185.3-157.9,185.1-157.7,185z M-162.4,200.4c0.1,0,0.2-0.1,0.3-0.2c0.2,0.1,0.5,0.2,0.7,0.4
		c-0.5,3-0.5,6.2,0.1,9.2c0.5,2.6,1.5,5.1,3.1,7.2c2,2.7,4.7,4.7,7.5,6.3c1.3,0.8,2.7,1.4,4.1,2.1c-0.7,1.8-0.7,3.9-0.4,6
		c-0.5-0.2-1.2-0.5-2-0.8c-2.8-1.1-6.4-2.5-10.4-3.9c-3.5-1.2-10.6-3.7-14.3-4.6c1.1-1.7,1.9-3.6,2.7-5.4c1.3-3.1,2.3-6.4,3.5-9.5
		C-166.4,204.5-165,201.5-162.4,200.4z M-185.3,216.8C-185.3,216.8-185.3,216.8-185.3,216.8C-185.3,216.8-185.3,216.8-185.3,216.8
		C-185.3,216.8-185.3,216.8-185.3,216.8z M-186.9,222.5c1.2-1.8,2.8-3.9,3.2-6.1c0.2-1.1,0-2.5-1-3.1c0,0,0,0,0,0
		c0.7-0.9,1.5-1.8,2.2-2.6c1.4-1.5,3.6-4,1.9-6.1c-0.4-0.5-1-0.8-1.6-0.9c0.1-0.1,0.1-0.3,0.2-0.4c1.2-2.2,2.9-4.1,4.6-5.9
		c1.3-1.3,2.6-2.6,4-3.8c1.6,1.9,3.9,3,6.1,4.1c0.4,0.2,0.8,0.4,1.2,0.6c-1.6,1.3-2.8,3.1-3.7,4.9c-1.5,3-2.5,6.1-3.6,9.2
		c-1,2.9-2.1,5.8-3.9,8.3c-0.4,0.5-0.8,1-1.2,1.4c-0.2,0.2-0.4,0.4-0.7,0.6c-0.1,0.1-0.2,0.1-0.2,0.2c-0.6,0.3-1.3,0.5-2,0.7
		c-2.5,0.8-5,1.5-7.6,2C-188.3,224.5-187.6,223.5-186.9,222.5z M-231.7,270c-0.9,0.6-1.9,1.2-2.8,1.4c-0.1,0-0.2,0.1-0.3,0.1
		c0,0,0-0.1,0-0.1c0,0-0.1,0.2,0-0.1c0.1-0.3,0.2-0.7,0.3-1c0.8-2.6,2.1-4.9,3.4-7.6c0.7-1.4,1.3-3.5-0.2-4.7
		c-1.1-0.9-2.5-0.5-3.7,0.1c0.2-0.7,0.4-1.3,0.7-1.9c1.2-2.5,2.9-4.6,4.6-6.7c1.3-1.6,3.3-3.4,3.7-5.5c0.3-1.6-0.7-3-2.3-3
		c0,0-0.1,0-0.1,0c0.8-0.8,1.7-1.6,2.5-2.3c2-1.7,4.1-3.2,6.5-4.4c1.5-0.8,3-1.5,4.6-2.1c-1,1-1.8,2.2-2.4,3.6
		c-1.5,3.3-1.4,6.9-0.9,10.4c0.1,0.7,0.2,1.5,0.3,2.2c0.1,0.7,0.2,1.5,0.3,1.9c0.1,0.6,0.1,1.3,0.1,1.9c0,0.3,0,0.6,0,0.9
		c0,0,0,0.3,0,0.3c0,0.1,0,0.3-0.1,0.4c-0.2,0.8-0.3,0.9-0.7,1.7c-0.5,0.9-1.1,1.8-1.7,2.6c-1.4,1.8-3.1,3.5-4.7,5.2
		c-1.6,1.6-3.4,3.2-5,4.8C-230.3,268.7-231,269.3-231.7,270z M-234.2,260.1C-234.2,260.1-234.2,260.1-234.2,260.1
		C-234.2,260.1-234.2,260.1-234.2,260.1z M-205.4,283.6c0.5,0.7,1.1,1.3,1.5,1.9c1.1,1.7,1.3,2.5,0.3,4.5c-1.3,2.5-3.7,4.5-6.4,5.2
		c-2,0.5-4.1,0.1-5.7-0.6c-0.1,0-0.2-0.1-0.3-0.2c0,0,0,0,0,0c-0.2-0.2-0.4-0.3-0.6-0.5c-0.1-0.1-0.3-0.2-0.4-0.3
		c0-0.1,0.4-0.8,0.5-1.1c0.8-1.5,1.7-2.9,2.7-4.1C-211.5,285.7-208.7,284.2-205.4,283.6z M-197.9,267.9
		C-197.9,267.9-197.9,267.9-197.9,267.9C-197.9,267.9-197.9,267.9-197.9,267.9z M-186,275c-3.2-1.3-5.3-4.6-7.4-7.5
		c2.2-0.4,4.4-0.5,6.7-0.4c2.9,0.1,5.9,0.5,8.6,1.5c-0.6,2.2-0.7,6.1,0.3,8.5C-180.6,276.7-183.4,276.1-186,275z M-116,275.4
		c-3.4,2.7-5.7,6.6-6.9,9.3c-6.9-7.2-13.8-14.4-20.7-21.5c-1-1-2-2.1-3-3.1c-1.7-1.8-4.5,0.9-2.7,2.7c7.2,7.5,14.3,14.9,21.5,22.4
		c0.3,0.4,0.7,0.7,1,1.1c-3.7,0.7-6.7,2.9-8.3,4.3c-2.8,2.5-4.6,7.2-5.4,9.7c-4.7-4.4-9.1-9.1-13.6-13.7c-0.5-0.5-1-1-1.5-1.5
		c0.1,0,0.3,0,0.4,0c1.3,0,2.4-0.7,2.8-1.6c0.6-1.3-0.6-2.5-0.7-2.6c-0.2-0.2-0.8-0.7-1.7-0.8c-1.2-0.1-3.3,0.4-4.1,1.4
		c-1.4-1.4-2.7-2.9-4-4.3c-0.1-0.1-0.1-0.1-0.2-0.2c0,0,0,0,0,0c-1.4-2-2.9-4.2-4.6-6c-2.3-2.4-5.4-4.6-8.5-5.9
		c-3.3-1.3-6.9-1.8-10.4-2c-3.5-0.2-7.1,0.1-10.5,1.3c0,0,0,0,0,0c0,0-0.1,0-0.1,0c-1.5,0.3-3,1.1-4.4,1.8c-3.4,1.7-8,4.8-8.2,9.1
		c-0.1,1.8,0.7,3.4,1.8,4.9c-3.5,1-6.6,3-8.9,6c-1.1,1.4-2.1,2.9-2.9,4.6c-2.7-2.6-5.4-5.4-7.7-8.3c-0.4-0.5-0.9-1.1-1.2-1.7
		c-0.1-0.1-0.3-0.6-0.3-0.5c-0.2-0.7-0.4-1.4-0.4-2.1c-0.2-1.7,0-3.6,0.5-5.2c0.1-0.1,0.2-0.2,0.3-0.3c0.5-0.5,1-1,1.6-1.5
		c1.5-1.4,2.9-2.7,4.4-4.1c3-3,6.3-6.2,8.3-10c2.9-5.5-0.9-11.7,0.2-17.3c0.2-1.3,0.7-2.4,1.4-3.4c-0.2,1-0.2,2,0.4,2.6
		c1.2,1.1,4.1,0.2,5.3-1.1c0.9-1,1-2.5,0.5-3.5c-0.6-1.3-2-1.4-2.6-1.4c1.2-0.8,2.5-1.4,3.8-2c0.1,0,0.2-0.1,0.3-0.1
		c3.2-0.2,7-0.5,9.5-0.8c2.1-0.2,6.9-0.6,10-1.3c1,1.9,3,4.6,4.4,5.1c6.4,2.3,6.4,2.3,10.9,6.5c1,1,2.3,2.1,3.9,3.6
		c7.9,7.2,13,10.1,15.3,11.2c1.6,0.8,3,1.5,4.3,2.1c3.5,1.7,5.7,2.8,7.3,2.8c0.4,0,0.8-0.1,1.1-0.2c0.5-0.2,1-0.7,1.3-1.4
		c0.8-2.2,0.3-6-1.4-10.3c1.8,2.2,4,4.2,6.1,6.2c3,2.9,6.1,5.8,9.2,8.6c3.8,3.5,7.8,6.8,11.5,10.4
		C-113.2,273.7-114.4,274.2-116,275.4z"/>
</g>
</svg>
