<?xml version="1.0" encoding="utf-8"?>
<!-- Generator: Adobe Illustrator 19.1.0, SVG Export Plug-In . SVG Version: 6.00 Build 0)  -->
<svg version="1.1" id="Layer_1" xmlns="http://www.w3.org/2000/svg" xmlns:xlink="http://www.w3.org/1999/xlink" x="0px" y="0px"
	 viewBox="-244 166 150 150" style="enable-background:new -244 166 150 150;" xml:space="preserve">
<style type="text/css">
	.st0{fill:#FFFFFF;}
</style>
<g>
	<path class="st0" d="M-143,208.4c1.2-0.1,2.3-0.9,2.6-1.9c0.5-1.5-0.8-2.7-0.9-2.7c-0.2-0.2-0.8-0.7-1.7-0.8
		c-1.4-0.1-3.1,1.1-3.1,2.7C-146.2,207.1-144.7,208.5-143,208.4z"/>
	<path class="st0" d="M-119,216.6c0.7,0.3,1.4,0.2,1.8-0.1c0.6-0.5,0.1-1.3,0.1-1.3c-0.1-0.1-0.3-0.5-0.8-0.8
		c-0.8-0.4-1.9-0.4-2.2,0.2C-120.4,215.2-119.9,216.2-119,216.6z"/>
	<path class="st0" d="M-106.7,276.1c-0.8-2.1-2.5-3.9-4-5.5c-2.2-2.3-4.6-4.4-6.9-6.5c-5.6-5.1-11.2-10.2-16.6-15.5
		c-1-1-2.1-2.1-3.1-3.2c-0.3-0.3-0.5-0.6-0.8-0.9c0.1,0.1-0.5-0.6-0.5-0.7c-0.4-0.5-0.7-1-1.1-1.6c-2.4-3.6-5.1-8-5.1-12.4
		c0-1.7,0.5-3,1.9-3.6c1.9-0.7,4-0.7,6-0.5c0.7,0.1,1.5,0.2,2.2,0.4c0.1,0,0.8,0.3,0.7,0.2c0.3,0.1,0.5,0.2,0.8,0.4
		c1.9,0.9,3.9,1.7,5.9,2.4c2.2,0.8,4.6,1.4,7,1.4c2.2,0,4.1-0.8,5.8-2.2c3.7-3.2,6-8.7,5.1-13.5c-0.3-1.6-1.3-2.9-2.4-4
		c-1.3-1.4-2.7-2.7-4.1-3.9c-1.3-1.1-2.7-2.3-4-3.3c-0.3-0.3-0.7-0.6-1-0.8c0-0.1-0.1-0.1-0.1-0.2c-2-4-4.3-8.4-7.7-11.5
		c1.4,0.2,2.8,0.3,4.1,0.1c1.7-0.3,3.1-1.7,3.1-3.5c0-1.7-1.6-2.6-2.9-3.2c-1.4-0.6-2.8-1-4.2-1.4c0.2-0.2,0.3-0.4,0.4-0.7
		c0.4-1.4-0.7-2.1-1.8-2.5c-2.1-0.7-4.4-0.6-6.6-0.2c-2.5,0.5-5,1.6-7.2,3c-1.1,0.7-2.2,1.5-3.3,2.4c-0.4,0.3-0.7,0.6-1,1
		c-0.3-0.4-0.7-0.8-1.2-1.2c-1.5-1.2-3.3-1.3-5.1-1c-1.6,0.3-3.1,0.9-4.6,1.5c-1.9,0.7-3.7,1.2-5.8,1c-0.3,0-0.5,0-0.9,0
		c-2.2-0.5-4.5-0.2-6.2,1.5c-1.8,1.8-2.5,4.3-1.9,6.7c-1.5,1.4-3.1,2.8-4.5,4.3c-2,2.1-4,4.4-5.1,7.1c-0.4,1.1-0.7,2.7,0,3.7
		c0.3,0.4,0.6,0.6,1,0.7c-0.3,0.3-0.6,0.6-0.9,1c-0.9,1-1.9,2.1-2.6,3.3c-0.7,1.2-1.3,3.1-0.3,4.3c0.2,0.2,0.4,0.4,0.6,0.5
		c-0.4,0.7-0.8,1.4-1.3,2.1c-1.2,1.8-2.4,3.5-3.9,5c-0.1,0.1-0.5,0.4-0.6,0.6c-0.2,0-0.4,0.1-0.7,0.1c-0.5,0.1-0.3,0-0.8,0.1
		c-2,0.2-4.1,0.3-6.1,0.5c-3.4,0.2-7.3,0.1-10.6,1.2c-4.9,1.7-9.3,4.2-13.2,7.6c-1.6,1.4-3.8,3.3-3.9,5.6c-0.1,1.2,0.4,2.6,1.7,2.7
		c0,0,0.1,0,0.1,0c0,0-0.1,0.1-0.1,0.1c-1.5,1.8-3.1,3.7-4.4,5.7c-1.3,2.1-2.4,4.4-2.6,6.8c-0.1,1.1,0,2.2,1,2.9
		c0.7,0.4,1.5,0.4,2.2,0.1c-1.2,2.3-2.4,4.7-2.9,7.2c-0.2,1.3-0.2,2.8,0.8,3.8c1.1,1,2.6,0.9,3.9,0.5c-0.1,1.4-0.1,2.7,0.1,4
		c0.4,2.3,1.6,4,3.1,5.7c3,3.7,6.4,7.3,10.1,10.3c5.2,4.2,12.9,1.5,16.4-3.6c1.7-2.5,2.3-5.3,0.8-8c-1.3-2.3-3.3-4.1-4.7-6.3
		c-0.3-0.5-0.6-0.9-0.7-1.4c-0.1-0.3-0.1-0.5,0.1-1c0.5-1.2,1.5-2.1,2.5-2.9c1.5-1.2,3.4-2.3,5.3-2.9c0.2,0.3,0.5,0.7,0.7,1
		c0.9,1.2,1.7,2.4,2.7,3.5c1.6,2,3.2,3.6,5.7,4.6c2.5,1,5.2,1.6,7.8,2c2.5,0.4,5.1,0.7,7.6,0.7c1.6,0,3.5-0.1,5.1-0.6
		c5.5,6,11.3,11.7,17.1,17.4c2,2,3.9,4.2,6.2,5.8c5.1,3.8,12,2,16.1-2.3c1.3-1.3,2.5-2.9,2.8-4.8c0.3-1.4,0.2-2.9,0-4.3
		c0.6,0.2,1.1,0.4,1.7,0.5c5,0.8,10.9-1.9,13.3-6.5C-106.1,280.9-105.8,278.4-106.7,276.1z M-135.1,222.4c-0.1,0-0.1,0-0.2,0
		c-3.1-0.5-7.6-0.7-10.4,1.4c-3.7-2-7.7-3.6-10.1-7.2c-0.9-1.4-1.6-3-1.9-4.6c0.4,0.1,0.7,0.3,1.1,0.4c5.3,2.1,10.8,3.7,16.3,5.1
		c1.9,0.5,3.8,1,5.8,1.4C-134.8,220-135,221.2-135.1,222.4z M-121.1,206.9c2.6,2.1,5.7,4.6,7.5,7c0.2,0.2,0.3,0.5,0.5,0.7
		c0,0.1,0.1,0.1,0.1,0.1c0,0,0,0.1,0,0.1c0.3,1,0.3,2.1,0.1,3.2c-0.4,2.2-1.4,4.5-2.8,6.2c-1.1,1.3-2.4,2.4-4.1,2.5
		c-2.1,0.1-4.3-0.5-6.3-1.2c-1.9-0.6-3.7-1.5-5.5-2.3c0.1-4.8,2.2-9.2,5.5-12.8c1.5-1.7,2.9-2.9,4.6-4
		C-121.4,206.7-121.2,206.8-121.1,206.9z M-125,188.1C-125,188.1-125,188.1-125,188.1C-125,188-125,188-125,188.1
		C-125,188-125,188-125,188.1z M-131.2,183.1C-130.9,183.2-130.9,183.4-131.2,183.1L-131.2,183.1z M-131.3,180.4
		C-131.2,180.3-131.2,180.3-131.3,180.4L-131.3,180.4z M-139.3,184c1.4-0.6,2.8-1,4.3-1.2c0.4,0,0.8-0.1,1.2-0.1
		c-0.2,1.1,0.4,2.2,1.5,2.8c1.9,1,4.2,1.2,6.2,2c0.1,0,0.2,0.1,0.2,0.1c-0.4,0-1,0-1.4-0.1c-3.5-0.3-7-1.3-10.5-0.8
		c-0.2,0-0.4,0.1-0.6,0.2c-1.9-0.2-3.9-0.2-5.8,0.1C-142.7,185.7-141,184.7-139.3,184z M-147.4,187.3
		C-147.4,187.3-147.4,187.3-147.4,187.3L-147.4,187.3z M-140.4,190.2c2.2,0.1,4.6,0.4,6.6,1.5c1.6,0.9,3,2.1,4.2,3.5
		c2.1,2.4,3.6,5.1,4.9,8c0.1,0.3,0.3,0.6,0.4,0.9c-4.1,2.8-7.5,7-9.4,11.7c-4-0.9-7.9-1.9-11.9-3.1c-4.3-1.2-8.7-2.5-12.7-4.5
		c0-0.4,0-0.8,0-1.2c0.2-3.7,1.4-7.4,3.7-10.4C-151.1,192.3-145.9,190-140.4,190.2z M-156.6,187.9c1.9-0.7,4.1-1.6,5.5,0.3
		c0.2,0.2,0.3,0.4,0.5,0.7c-0.8,0.4-1.5,0.9-2.3,1.4c-0.7,0.5-1.4,1.1-2,1.7c-1.6-1-3.2-2-4.9-3
		C-158.7,188.7-157.6,188.3-156.6,187.9z M-171.8,191.9c0.5-3.4,4.1-3.9,6.8-3c1.5,0.5,2.9,1.4,4.2,2.2c1.5,0.8,2.9,1.6,4.3,2.5
		c1,0.6,0.1,2.1-0.9,1.5c-2.3-1.3-4.5-2.6-6.8-3.8c-1.3-0.7-2.7-1.2-4.2-1c-1.4,0.2-2,1.8-1.7,3c0.6,2.6,3.5,3.6,5.6,4.8
		c1.5,0.8,2.9,1.5,4.4,2.3c1,0.5,0.1,2-0.9,1.5c0,0,0,0,0,0c0,0,0,0,0,0c-1.9-1-3.9-2-5.9-3C-169.3,197.4-172.3,195.4-171.8,191.9z
		 M-161.4,204.3c-0.1,0.5-0.3,1.4-0.4,1.9c-0.4-0.5-0.6-1-0.8-1.6c0.1-0.1,0.4-0.6,0.5-0.6C-161.7,204.1-161.5,204.2-161.4,204.3z
		 M-183.1,218.7C-183.1,218.7-183.1,218.7-183.1,218.7C-183.1,218.7-183.1,218.7-183.1,218.7C-183.1,218.7-183.1,218.7-183.1,218.7z
		 M-185,217.6C-185,217.6-185,217.6-185,217.6C-185.1,217.6-185.1,217.6-185,217.6z M-184.5,224c1.1-1.7,2.5-3.6,2.9-5.6
		c0.2-1,0-2.3-1-2.9c0,0,0,0,0,0c0.6-0.8,1.4-1.6,2.1-2.4c1.2-1.4,3.3-3.7,1.7-5.6c-0.4-0.5-0.9-0.8-1.5-0.9
		c0.1-0.1,0.1-0.2,0.2-0.4c1.1-2,2.6-3.7,4.2-5.4c1.1-1.1,2.2-2.2,3.4-3.3c1.5,1.7,3.6,2.7,5.6,3.8c0.4,0.2,0.8,0.4,1.2,0.6
		c-2.9,2.4-4.3,6.6-5.6,9.9c-0.9,2.3-1.7,4.6-2.8,6.8c-0.9,1.9-2,3.8-3.8,5c-0.1,0-0.1,0.1-0.2,0.1c-2.3,1.1-5.4,1.9-8.4,2.5
		C-185.7,225.6-185.1,224.8-184.5,224z M-191.4,227.1C-191.3,227-191.1,227-191.4,227.1L-191.4,227.1z M-198.4,231.2
		c0.6-0.9,2.2-0.1,1.5,0.9c-1.5,2.2-3.4,5.8-2.6,8.6c0.6,2,4.4,2,6,2c6.5,0,10.8-7.1,11-13.2c0-1.1,1.8-1.1,1.8,0
		c-0.1,3.2-1.4,7-3.2,9.6c-3.1,4.6-9.1,6.4-14.2,4.7c-2.1-0.7-3.2-1.9-3.3-4.1C-201.5,236.7-200.1,233.7-198.4,231.2z M-223.4,242.3
		c0.1,0.2-0.2,0.3,0,0.1C-223.6,242.6-223.5,242.4-223.4,242.3z M-223.5,242.8C-223.5,242.8-223.5,242.8-223.5,242.8
		C-223.5,242.8-223.6,242.8-223.5,242.8C-223.6,242.7-223.5,242.7-223.5,242.8z M-228.6,268.8C-228.6,268.9-228.7,268.9-228.6,268.8
		C-228.7,268.9-228.7,268.9-228.6,268.8C-228.7,268.9-228.7,268.9-228.6,268.8c-0.2,0.1-0.3,0.1-0.2,0
		C-228.7,268.8-228.7,268.8-228.6,268.8C-228.6,268.8-228.6,268.8-228.6,268.8z M-228.6,258.3C-228.5,258.5-228.6,258.6-228.6,258.3
		L-228.6,258.3z M-225.4,267.4c-0.8,0.5-1.8,1.1-2.6,1.3c-0.1,0-0.2,0.1-0.3,0.1c0,0,0-0.1,0-0.1c0,0-0.1,0.2,0-0.1
		c0.1-0.3,0.1-0.6,0.2-0.9c0.7-2.4,1.9-4.5,3.1-6.9c0.7-1.3,1.2-3.2-0.2-4.3c-1-0.8-2.3-0.4-3.4,0.1c0.2-0.6,0.4-1.2,0.7-1.8
		c1.1-2.2,2.6-4.2,4.2-6.1c1.2-1.5,3-3.1,3.4-5c0.3-1.4-0.6-2.7-2.1-2.7c0,0-0.1,0-0.1,0c0.7-0.8,1.5-1.5,2.3-2.1
		c1.8-1.5,3.8-2.9,5.9-4c1.4-0.7,2.8-1.4,4.2-1.9c-0.9,0.9-1.7,2-2.2,3.2c-1.4,3-1.3,6.3-0.8,9.5c0.1,0.7,0.2,1.4,0.3,2
		c0.1,0.6,0.2,1.4,0.3,1.8c0.1,0.6,0.1,1.1,0.1,1.7c0,0.3,0,0.6,0,0.8c0,0,0,0.2,0,0.3c0,0.1,0,0.2-0.1,0.3
		c-0.2,0.7-0.2,0.8-0.7,1.5c-0.5,0.8-1,1.6-1.6,2.4c-1.3,1.7-2.8,3.2-4.3,4.7c-1.5,1.5-3.1,2.9-4.6,4.4
		C-224.1,266.1-224.8,266.7-225.4,267.4z M-227.7,258.3C-227.7,258.3-227.7,258.3-227.7,258.3C-227.8,258.3-227.7,258.3-227.7,258.3
		z M-222.2,244.4C-222.2,244.4-222.2,244.4-222.2,244.4C-222,244.2-222.2,244.4-222.2,244.4z M-194.6,265.4
		C-194.5,265.4-194.5,265.4-194.6,265.4C-194.5,265.4-194.6,265.4-194.6,265.4z M-193.9,262.3C-193.9,262.3-193.9,262.3-193.9,262.3
		C-193.9,262.3-194,262.3-193.9,262.3c-1.5,0.3-2.9,1-4.1,1.7c-3.1,1.6-7.3,4.4-7.5,8.3c0,1.2,0.3,2.3,0.9,3.4
		c-2.4,0.8-4.9,2.3-6.3,3.8c-2.1,2.1-3.7,4.5-4.7,6.2c-2.2-2.1-4.3-4.4-6.2-6.8c-0.4-0.4-0.8-1-1.1-1.6c-0.1-0.1-0.3-0.5-0.2-0.5
		c-0.2-0.6-0.3-1.3-0.4-1.9c-0.2-1.6,0-3.3,0.5-4.8c0.1-0.1,0.2-0.2,0.3-0.3c0.5-0.5,0.9-0.9,1.4-1.4c1.3-1.3,2.7-2.5,4-3.8
		c2.8-2.7,5.7-5.6,7.6-9.1c2.6-5.1-0.8-10.7,0.2-15.8c0.7-3.4,3.1-5.6,6.1-7.2c-1.8,3.8-2.6,7.8-1.9,10.2c0.7,2.4,3.2,4.5,6.5,5.3
		l0.5,0.1c2.2,0.5,5.2,1.3,5.5,2.4c1,4.1,2,6.4,3.9,10.6C-190.7,261.4-192.3,261.8-193.9,262.3z M-183.7,271.9
		c-3-1.2-4.8-4.2-6.7-6.9c2-0.4,4-0.5,6.1-0.4c2.6,0.1,5.4,0.4,7.9,1.4c-0.5,2-0.6,5.6,0.3,7.7
		C-178.8,273.4-181.3,272.9-183.7,271.9z M-119.7,272.3c-3.1,2.4-5.2,6.1-6.3,8.5c-6.3-6.6-12.6-13.1-18.9-19.7
		c-0.9-0.9-1.8-1.9-2.7-2.8c-1.6-1.6-4.1,0.9-2.5,2.5c6.5,6.8,13.1,13.6,19.6,20.4c0.3,0.3,0.6,0.7,0.9,1c-3.4,0.7-6.1,2.7-7.5,4
		c-2.6,2.3-4.2,6.6-4.9,8.9c-4.3-4-8.4-8.3-12.5-12.5c-2.7-2.8-5.5-5.6-8.1-8.5c-0.1-0.1-0.1-0.1-0.2-0.2c0,0,0,0,0,0
		c-1.3-1.9-2.7-3.8-4.2-5.5c-2.1-2.2-4.9-4.2-7.7-5.4c-1.8-0.7-3.8-1.2-5.8-1.5c-1.3-2.4-3.6-7.1-4.4-12.2c-0.2-1.2,0.4-2,1.8-3.6
		c1.3-1.5,3.2-3.7,4.8-7.5c0.8-1.9,1.6-5,2.2-8.5c0.2-1.2,0.3-2.2,0.4-3c4-2.9,5.8-7.8,7.5-12.3c0.9-2.5,1.9-5.7,3.6-8.1
		c0.7,1.4,1.9,2.6,3.2,3.5c0.1,0.8,0.2,1.6,0.3,2.4c0.5,2.3,1.4,4.6,2.8,6.5c1.8,2.4,4.3,4.3,6.9,5.8c1.2,0.7,2.5,1.3,3.8,2
		c-1.2,3.1-0.2,6.9,0.9,9.8c1.5,3.8,3.7,7.5,6.3,10.7c1.7,2.1,3.8,4,5.7,5.9c2.8,2.7,5.6,5.3,8.4,7.9c3.4,3.2,7.1,6.2,10.5,9.5
		C-117.2,270.7-118.3,271.2-119.7,272.3z"/>
</g>
</svg>
